<svg xmlns="http://www.w3.org/2000/svg" xmlns:xlink="http://www.w3.org/1999/xlink" version="1.1" width="1000" height="1000" viewBox="0 0 1000 1000" xml:space="preserve">
<desc>Created with Fabric.js 3.5.0</desc>
<defs>
</defs>
<rect x="0" y="0" width="100%" height="100%" fill="#ffffff"/>
<g transform="matrix(7.9052 0 0 7.9052 500.0021 500.0007)" id="84951">
<path style="stroke: none; stroke-width: 1; stroke-dasharray: none; stroke-linecap: butt; stroke-dashoffset: 0; stroke-linejoin: miter; stroke-miterlimit: 4; is-custom-font: none; font-file-url: none; fill: rgb(41,45,51); fill-rule: nonzero; opacity: 1;" vector-effect="non-scaling-stroke" transform=" translate(-57.4998, -73.9943)" d="M 12.3885 71.8498 C 12.7111 69.5469 11.8192 67.4854 9.93771 67.6806 C 7.38531 67.9455 5.60947 74.7822 11.039 77.0572 C 15.4905 78.9224 18.7313 74.6044 23.8596 67.942 C 35.3187 53.0552 49.1553 51.6114 57.5934 66.6395 C 61.0713 58.4032 74.7804 44.6736 95.7131 73.1524 C 103.403 83.6142 110.274 73.7758 106.509 68.3762 C 104.797 65.9202 101.45 69.3501 103.136 71.8498 H 102.798 C 94.9417 62.8829 111.352 54.5042 114.604 69.6788 C 117.964 92.5196 99.2426 96.2328 84.2444 87.9122 C 55.257 69.242 54.9478 74.2575 26.8937 89.649 C 18.2842 94.1912 7.73981 91.5959 3.48342 86.344 C -1.57177 80.1065 -1.25908 65.284 5.30345 62.2975 C 12.0013 58.8396 17.6677 66.2421 12.3885 71.8498 Z" stroke-linecap="round"/>
</g>
</svg>