<svg width="412" height="65" viewBox="0 0 412 65" fill="none" xmlns="http://www.w3.org/2000/svg">
<path d="M23.264 25.024C24.8853 25.28 26.3573 25.9413 27.68 27.008C29.0453 28.0747 30.112 29.3973 30.88 30.976C31.6907 32.5547 32.096 34.24 32.096 36.032C32.096 38.2933 31.52 40.3413 30.368 42.176C29.216 43.968 27.5307 45.3973 25.312 46.464C23.136 47.488 20.5547 48 17.568 48H0.928V3.392H16.928C19.9573 3.392 22.5387 3.904 24.672 4.928C26.8053 5.90933 28.4053 7.25333 29.472 8.96C30.5387 10.6667 31.072 12.5867 31.072 14.72C31.072 17.3653 30.3467 19.5627 28.896 21.312C27.488 23.0187 25.6107 24.256 23.264 25.024ZM6.752 22.656H16.544C19.2747 22.656 21.3867 22.016 22.88 20.736C24.3733 19.456 25.12 17.6853 25.12 15.424C25.12 13.1627 24.3733 11.392 22.88 10.112C21.3867 8.832 19.232 8.192 16.416 8.192H6.752V22.656ZM17.056 43.2C19.9573 43.2 22.2187 42.5173 23.84 41.152C25.4613 39.7867 26.272 37.888 26.272 35.456C26.272 32.9813 25.4187 31.04 23.712 29.632C22.0053 28.1813 19.7227 27.456 16.864 27.456H6.752V43.2H17.056ZM38.002 30.336C38.002 26.752 38.7273 23.616 40.178 20.928C41.6287 18.1973 43.6127 16.0853 46.13 14.592C48.69 13.0987 51.5273 12.352 54.642 12.352C57.714 12.352 60.3807 13.0133 62.642 14.336C64.9033 15.6587 66.5887 17.3227 67.698 19.328V12.928H73.586V48H67.698V41.472C66.546 43.52 64.818 45.2267 62.514 46.592C60.2527 47.9147 57.6073 48.576 54.578 48.576C51.4633 48.576 48.6473 47.808 46.13 46.272C43.6127 44.736 41.6287 42.5813 40.178 39.808C38.7273 37.0347 38.002 33.8773 38.002 30.336ZM67.698 30.4C67.698 27.7547 67.1647 25.4507 66.098 23.488C65.0313 21.5253 63.5807 20.032 61.746 19.008C59.954 17.9413 57.97 17.408 55.794 17.408C53.618 17.408 51.634 17.92 49.842 18.944C48.05 19.968 46.6207 21.4613 45.554 23.424C44.4873 25.3867 43.954 27.6907 43.954 30.336C43.954 33.024 44.4873 35.3707 45.554 37.376C46.6207 39.3387 48.05 40.8533 49.842 41.92C51.634 42.944 53.618 43.456 55.794 43.456C57.97 43.456 59.954 42.944 61.746 41.92C63.5807 40.8533 65.0313 39.3387 66.098 37.376C67.1647 35.3707 67.698 33.0453 67.698 30.4ZM89.252 18.624C90.276 16.6187 91.7267 15.0613 93.604 13.952C95.524 12.8427 97.8493 12.288 100.58 12.288V18.304H99.044C92.516 18.304 89.252 21.8453 89.252 28.928V48H83.428V12.928H89.252V18.624ZM113.127 19.456C114.322 17.3653 116.071 15.6587 118.375 14.336C120.679 13.0133 123.303 12.352 126.247 12.352C129.404 12.352 132.242 13.0987 134.759 14.592C137.276 16.0853 139.26 18.1973 140.711 20.928C142.162 23.616 142.887 26.752 142.887 30.336C142.887 33.8773 142.162 37.0347 140.711 39.808C139.26 42.5813 137.255 44.736 134.695 46.272C132.178 47.808 129.362 48.576 126.247 48.576C123.218 48.576 120.551 47.9147 118.247 46.592C115.986 45.2693 114.279 43.584 113.127 41.536V48H107.303V0.639999H113.127V19.456ZM136.935 30.336C136.935 27.6907 136.402 25.3867 135.335 23.424C134.268 21.4613 132.818 19.968 130.983 18.944C129.191 17.92 127.207 17.408 125.031 17.408C122.898 17.408 120.914 17.9413 119.079 19.008C117.287 20.032 115.836 21.5467 114.727 23.552C113.66 25.5147 113.127 27.7973 113.127 30.4C113.127 33.0453 113.66 35.3707 114.727 37.376C115.836 39.3387 117.287 40.8533 119.079 41.92C120.914 42.944 122.898 43.456 125.031 43.456C127.207 43.456 129.191 42.944 130.983 41.92C132.818 40.8533 134.268 39.3387 135.335 37.376C136.402 35.3707 136.935 33.024 136.935 30.336ZM182.553 29.12C182.553 30.2293 182.489 31.4027 182.361 32.64H154.329C154.542 36.096 155.716 38.8053 157.849 40.768C160.025 42.688 162.649 43.648 165.721 43.648C168.238 43.648 170.329 43.072 171.993 41.92C173.7 40.7253 174.894 39.1467 175.577 37.184H181.849C180.91 40.5547 179.033 43.3067 176.217 45.44C173.401 47.5307 169.902 48.576 165.721 48.576C162.393 48.576 159.406 47.8293 156.761 46.336C154.158 44.8427 152.11 42.7307 150.617 40C149.124 37.2267 148.377 34.0267 148.377 30.4C148.377 26.7733 149.102 23.5947 150.553 20.864C152.004 18.1333 154.03 16.0427 156.633 14.592C159.278 13.0987 162.308 12.352 165.721 12.352C169.049 12.352 171.993 13.0773 174.553 14.528C177.113 15.9787 179.076 17.984 180.441 20.544C181.849 23.0613 182.553 25.92 182.553 29.12ZM176.537 27.904C176.537 25.6853 176.046 23.7867 175.065 22.208C174.084 20.5867 172.74 19.3707 171.033 18.56C169.369 17.7067 167.513 17.28 165.465 17.28C162.521 17.28 160.004 18.2187 157.913 20.096C155.865 21.9733 154.692 24.576 154.393 27.904H176.537ZM196.065 18.624C197.089 16.6187 198.539 15.0613 200.417 13.952C202.337 12.8427 204.662 12.288 207.393 12.288V18.304H205.857C199.329 18.304 196.065 21.8453 196.065 28.928V48H190.241V12.928H196.065V18.624ZM236.452 25.024C238.073 25.28 239.545 25.9413 240.868 27.008C242.233 28.0747 243.3 29.3973 244.068 30.976C244.878 32.5547 245.284 34.24 245.284 36.032C245.284 38.2933 244.708 40.3413 243.556 42.176C242.404 43.968 240.718 45.3973 238.5 46.464C236.324 47.488 233.742 48 230.756 48H214.116V3.392H230.116C233.145 3.392 235.726 3.904 237.86 4.928C239.993 5.90933 241.593 7.25333 242.66 8.96C243.726 10.6667 244.26 12.5867 244.26 14.72C244.26 17.3653 243.534 19.5627 242.083 21.312C240.676 23.0187 238.798 24.256 236.452 25.024ZM219.94 22.656H229.732C232.462 22.656 234.574 22.016 236.068 20.736C237.561 19.456 238.308 17.6853 238.308 15.424C238.308 13.1627 237.561 11.392 236.068 10.112C234.574 8.832 232.42 8.192 229.604 8.192H219.94V22.656ZM230.244 43.2C233.145 43.2 235.406 42.5173 237.028 41.152C238.649 39.7867 239.46 37.888 239.46 35.456C239.46 32.9813 238.606 31.04 236.9 29.632C235.193 28.1813 232.91 27.456 230.052 27.456H219.94V43.2H230.244ZM284.47 12.928V48H278.646V42.816C277.536 44.608 275.979 46.016 273.974 47.04C272.011 48.0213 269.835 48.512 267.446 48.512C264.715 48.512 262.262 47.9573 260.086 46.848C257.91 45.696 256.182 43.9893 254.902 41.728C253.664 39.4667 253.046 36.7147 253.046 33.472V12.928H258.806V32.704C258.806 36.16 259.68 38.8267 261.43 40.704C263.179 42.5387 265.568 43.456 268.598 43.456C271.712 43.456 274.166 42.496 275.958 40.576C277.75 38.656 278.646 35.8613 278.646 32.192V12.928H284.47ZM292.127 30.336C292.127 26.752 292.852 23.616 294.303 20.928C295.754 18.1973 297.738 16.0853 300.255 14.592C302.815 13.0987 305.674 12.352 308.831 12.352C311.562 12.352 314.1 12.992 316.447 14.272C318.794 15.5093 320.586 17.152 321.823 19.2V0.639999H327.711V48H321.823V41.408C320.671 43.4987 318.964 45.2267 316.703 46.592C314.442 47.9147 311.796 48.576 308.767 48.576C305.652 48.576 302.815 47.808 300.255 46.272C297.738 44.736 295.754 42.5813 294.303 39.808C292.852 37.0347 292.127 33.8773 292.127 30.336ZM321.823 30.4C321.823 27.7547 321.29 25.4507 320.223 23.488C319.156 21.5253 317.706 20.032 315.871 19.008C314.079 17.9413 312.095 17.408 309.919 17.408C307.743 17.408 305.759 17.92 303.967 18.944C302.175 19.968 300.746 21.4613 299.679 23.424C298.612 25.3867 298.079 27.6907 298.079 30.336C298.079 33.024 298.612 35.3707 299.679 37.376C300.746 39.3387 302.175 40.8533 303.967 41.92C305.759 42.944 307.743 43.456 309.919 43.456C312.095 43.456 314.079 42.944 315.871 41.92C317.706 40.8533 319.156 39.3387 320.223 37.376C321.29 35.3707 321.823 33.0453 321.823 30.4ZM335.377 30.336C335.377 26.752 336.102 23.616 337.553 20.928C339.004 18.1973 340.988 16.0853 343.505 14.592C346.065 13.0987 348.924 12.352 352.081 12.352C354.812 12.352 357.35 12.992 359.697 14.272C362.044 15.5093 363.836 17.152 365.073 19.2V0.639999H370.961V48H365.073V41.408C363.921 43.4987 362.214 45.2267 359.953 46.592C357.692 47.9147 355.046 48.576 352.017 48.576C348.902 48.576 346.065 47.808 343.505 46.272C340.988 44.736 339.004 42.5813 337.553 39.808C336.102 37.0347 335.377 33.8773 335.377 30.336ZM365.073 30.4C365.073 27.7547 364.54 25.4507 363.473 23.488C362.406 21.5253 360.956 20.032 359.121 19.008C357.329 17.9413 355.345 17.408 353.169 17.408C350.993 17.408 349.009 17.92 347.217 18.944C345.425 19.968 343.996 21.4613 342.929 23.424C341.862 25.3867 341.329 27.6907 341.329 30.336C341.329 33.024 341.862 35.3707 342.929 37.376C343.996 39.3387 345.425 40.8533 347.217 41.92C349.009 42.944 350.993 43.456 353.169 43.456C355.345 43.456 357.329 42.944 359.121 41.92C360.956 40.8533 362.406 39.3387 363.473 37.376C364.54 35.3707 365.073 33.0453 365.073 30.4ZM411.011 12.928L389.891 64.512H383.875L390.787 47.616L376.643 12.928H383.107L394.115 41.344L404.995 12.928H411.011Z" fill="#292D33"/>
<path d="M23.264 25.024L22.953 24.0736L23.108 26.0118L23.264 25.024ZM27.68 27.008L27.0522 27.7864L27.0583 27.7913L27.0644 27.796L27.68 27.008ZM30.88 30.976L29.9808 31.4135L29.9855 31.4232L29.9904 31.4328L30.88 30.976ZM30.368 42.176L31.2092 42.7168L31.2149 42.7078L30.368 42.176ZM25.312 46.464L25.7378 47.3689L25.7453 47.3652L25.312 46.464ZM0.928 48H-0.0719995V49H0.928V48ZM0.928 3.392V2.392H-0.0719995V3.392H0.928ZM24.672 4.928L24.2393 5.82952L24.2467 5.83307L24.2541 5.83649L24.672 4.928ZM29.472 8.96L28.624 9.49V9.49L29.472 8.96ZM28.896 21.312L28.1262 20.6737L28.1246 20.6756L28.896 21.312ZM6.752 22.656H5.752V23.656H6.752V22.656ZM22.88 10.112L22.2292 10.8713V10.8713L22.88 10.112ZM6.752 8.192V7.192H5.752V8.192H6.752ZM23.84 41.152L24.4841 41.9169L23.84 41.152ZM23.712 29.632L23.0644 30.3939L23.07 30.3987L23.0756 30.4034L23.712 29.632ZM6.752 27.456V26.456H5.752V27.456H6.752ZM6.752 43.2H5.752V44.2H6.752V43.2ZM23.108 26.0118C24.5503 26.2395 25.8608 26.8256 27.0522 27.7864L28.3078 26.2296C26.8539 25.0571 25.2204 24.3205 23.42 24.0362L23.108 26.0118ZM27.0644 27.796C28.3081 28.7677 29.2785 29.9698 29.9808 31.4135L31.7792 30.5385C30.9455 28.8248 29.7826 27.3817 28.2956 26.22L27.0644 27.796ZM29.9904 31.4328C30.7278 32.8687 31.096 34.3973 31.096 36.032H33.096C33.096 34.0827 32.6535 32.2406 31.7696 30.5192L29.9904 31.4328ZM31.096 36.032C31.096 38.1139 30.5686 39.9761 29.5211 41.6442L31.2149 42.7078C32.4714 40.7066 33.096 38.4728 33.096 36.032H31.096ZM29.5268 41.6352C28.4896 43.2487 26.9571 44.5635 24.8787 45.5627L25.7453 47.3652C28.1042 46.2311 29.9424 44.6873 31.2092 42.7168L29.5268 41.6352ZM24.8862 45.5592C22.8716 46.5072 20.4422 47 17.568 47V49C20.6672 49 23.4004 48.4688 25.7378 47.3688L24.8862 45.5592ZM17.568 47H0.928V49H17.568V47ZM1.928 48V3.392H-0.0719995V48H1.928ZM0.928 4.392H16.928V2.392H0.928V4.392ZM16.928 4.392C19.8481 4.392 22.2733 4.88587 24.2393 5.82952L25.1047 4.02647C22.804 2.92213 20.0666 2.392 16.928 2.392V4.392ZM24.2541 5.83649C26.2404 6.7502 27.677 7.97485 28.624 9.49L30.32 8.43C29.1336 6.53182 27.3702 5.06846 25.0899 4.01951L24.2541 5.83649ZM28.624 9.49C29.5853 11.028 30.072 12.7623 30.072 14.72H32.072C32.072 12.411 31.4921 10.3053 30.32 8.43L28.624 9.49ZM30.072 14.72C30.072 17.1724 29.4043 19.1325 28.1262 20.6737L29.6658 21.9503C31.289 19.9929 32.072 17.5582 32.072 14.72H30.072ZM28.1246 20.6756C26.8509 22.2195 25.1411 23.3575 22.953 24.0736L23.575 25.9744C26.0802 25.1545 28.1251 23.8178 29.6674 21.9484L28.1246 20.6756ZM6.752 23.656H16.544V21.656H6.752V23.656ZM16.544 23.656C19.4211 23.656 21.7967 22.9816 23.5308 21.4953L22.2292 19.9767C20.9767 21.0504 19.1282 21.656 16.544 21.656V23.656ZM23.5308 21.4953C25.2802 19.9958 26.12 17.9286 26.12 15.424H24.12C24.12 17.442 23.4665 18.9162 22.2292 19.9767L23.5308 21.4953ZM26.12 15.424C26.12 12.9194 25.2802 10.8522 23.5308 9.35274L22.2292 10.8713C23.4665 11.9318 24.12 13.406 24.12 15.424H26.12ZM23.5308 9.35274C21.7917 7.86213 19.3693 7.192 16.416 7.192V9.192C19.0947 9.192 20.9816 9.80186 22.2292 10.8713L23.5308 9.35274ZM16.416 7.192H6.752V9.192H16.416V7.192ZM5.752 8.192V22.656H7.752V8.192H5.752ZM17.056 44.2C20.1063 44.2 22.6257 43.4819 24.4841 41.9169L23.1959 40.3871C21.8116 41.5528 19.8084 42.2 17.056 42.2V44.2ZM24.4841 41.9169C26.3658 40.3324 27.272 38.1344 27.272 35.456H25.272C25.272 37.6416 24.5569 39.241 23.1959 40.3871L24.4841 41.9169ZM27.272 35.456C27.272 32.7228 26.3144 30.4826 24.3484 28.8606L23.0756 30.4034C24.5229 31.5974 25.272 33.2399 25.272 35.456H27.272ZM24.3596 28.8701C22.4269 27.2272 19.8928 26.456 16.864 26.456V28.456C19.5525 28.456 21.5838 29.1355 23.0644 30.3939L24.3596 28.8701ZM16.864 26.456H6.752V28.456H16.864V26.456ZM5.752 27.456V43.2H7.752V27.456H5.752ZM6.752 44.2H17.056V42.2H6.752V44.2ZM40.178 20.928L41.058 21.4029L41.0611 21.3972L40.178 20.928ZM46.13 14.592L45.6261 13.7282L45.6198 13.7319L46.13 14.592ZM62.642 14.336L62.1371 15.1992L62.642 14.336ZM67.698 19.328L66.823 19.8121L68.698 19.328H67.698ZM67.698 12.928V11.928H66.698V12.928H67.698ZM73.586 12.928H74.586V11.928H73.586V12.928ZM73.586 48V49H74.586V48H73.586ZM67.698 48H66.698V49H67.698V48ZM67.698 41.472H68.698V37.6545L66.8264 40.9817L67.698 41.472ZM62.514 46.592L63.0189 47.4552L63.0238 47.4523L62.514 46.592ZM46.13 46.272L45.6091 47.1256L46.13 46.272ZM40.178 39.808L41.0641 39.3445L40.178 39.808ZM61.746 19.008L61.2345 19.8673L61.2465 19.8744L61.2586 19.8812L61.746 19.008ZM49.842 18.944L49.3459 18.0758L49.842 18.944ZM45.554 23.424L46.4326 23.9015L45.554 23.424ZM45.554 37.376L44.6711 37.8456L44.6754 37.8535L45.554 37.376ZM49.842 41.92L49.3305 42.7793L49.3382 42.7838L49.3459 42.7882L49.842 41.92ZM61.746 41.92L62.2422 42.7883L62.2486 42.7845L61.746 41.92ZM66.098 37.376L66.9767 37.8535L66.9809 37.8456L66.098 37.376ZM39.002 30.336C39.002 26.889 39.6987 23.9216 41.058 21.4029L39.298 20.4531C37.7559 23.3104 37.002 26.615 37.002 30.336H39.002ZM41.0611 21.3972C42.4308 18.819 44.2897 16.8464 46.6402 15.4521L45.6198 13.7319C42.9356 15.3243 40.8266 17.5757 39.2949 20.4588L41.0611 21.3972ZM46.6339 15.4558C49.033 14.0563 51.695 13.352 54.642 13.352V11.352C51.3597 11.352 48.347 12.1411 45.6261 13.7282L46.6339 15.4558ZM54.642 13.352C57.5675 13.352 60.0536 13.9805 62.1371 15.1992L63.1469 13.4728C60.7077 12.0461 57.8605 11.352 54.642 11.352V13.352ZM62.1371 15.1992C64.2659 16.4443 65.8126 17.9855 66.823 19.8121L68.573 18.8439C67.3648 16.6598 65.5408 14.873 63.1469 13.4728L62.1371 15.1992ZM68.698 19.328V12.928H66.698V19.328H68.698ZM67.698 13.928H73.586V11.928H67.698V13.928ZM72.586 12.928V48H74.586V12.928H72.586ZM73.586 47H67.698V49H73.586V47ZM68.698 48V41.472H66.698V48H68.698ZM66.8264 40.9817C65.7719 42.8564 64.1787 44.4431 62.0042 45.7317L63.0238 47.4523C65.4573 46.0102 67.3201 44.1836 68.5696 41.9623L66.8264 40.9817ZM62.0091 45.7288C59.9235 46.9487 57.458 47.576 54.578 47.576V49.576C57.7567 49.576 60.5818 48.8807 63.0189 47.4552L62.0091 45.7288ZM54.578 47.576C51.6363 47.576 49.0024 46.8532 46.6509 45.4184L45.6091 47.1256C48.2923 48.7628 51.2903 49.576 54.578 49.576V47.576ZM46.6509 45.4184C44.298 43.9827 42.436 41.9673 41.0641 39.3445L39.2919 40.2715C40.8213 43.1953 42.9273 45.4893 45.6091 47.1256L46.6509 45.4184ZM41.0641 39.3445C39.6976 36.7321 39.002 33.7374 39.002 30.336H37.002C37.002 34.0173 37.7571 37.3372 39.2919 40.2715L41.0641 39.3445ZM68.698 30.4C68.698 27.6186 68.1364 25.1445 66.9766 23.0105L65.2194 23.9655C66.1929 25.7568 66.698 27.8907 66.698 30.4H68.698ZM66.9766 23.0105C65.8256 20.8925 64.2439 19.2569 62.2334 18.1348L61.2586 19.8812C62.9175 20.8071 64.2371 22.1581 65.2194 23.9655L66.9766 23.0105ZM62.2575 18.1487C60.3039 16.9859 58.1419 16.408 55.794 16.408V18.408C57.7981 18.408 59.6041 18.8968 61.2345 19.8673L62.2575 18.1487ZM55.794 16.408C53.4538 16.408 51.2973 16.9607 49.3459 18.0758L50.3381 19.8122C51.9707 18.8793 53.7822 18.408 55.794 18.408V16.408ZM49.3459 18.0758C47.3793 19.1995 45.8232 20.8345 44.6754 22.9465L46.4326 23.9015C47.4182 22.0881 48.7207 20.7365 50.3381 19.8122L49.3459 18.0758ZM44.6754 22.9465C43.5156 25.0805 42.954 27.5546 42.954 30.336H44.954C44.954 27.8267 45.4591 25.6928 46.4326 23.9015L44.6754 22.9465ZM42.954 30.336C42.954 33.1578 43.5146 35.6713 44.6711 37.8456L46.4369 36.9064C45.4601 35.07 44.954 32.8902 44.954 30.336H42.954ZM44.6754 37.8535C45.8215 39.9625 47.373 41.6141 49.3305 42.7793L50.3535 41.0607C48.727 40.0925 47.4198 38.7149 46.4326 36.8985L44.6754 37.8535ZM49.3459 42.7882C51.2973 43.9033 53.4538 44.456 55.794 44.456V42.456C53.7822 42.456 51.9707 41.9847 50.3381 41.0518L49.3459 42.7882ZM55.794 44.456C58.1342 44.456 60.2907 43.9033 62.2421 42.7882L61.2499 41.0518C59.6173 41.9847 57.8058 42.456 55.794 42.456V44.456ZM62.2486 42.7845C64.2502 41.6208 65.8273 39.9683 66.9766 37.8535L65.2194 36.8985C64.2354 38.709 62.9111 40.0859 61.2434 41.0555L62.2486 42.7845ZM66.9809 37.8456C68.1362 35.6736 68.698 33.182 68.698 30.4H66.698C66.698 32.9086 66.1931 35.0678 65.2151 36.9064L66.9809 37.8456ZM89.252 18.624H88.252L90.1426 19.0788L89.252 18.624ZM93.604 13.952L93.1037 13.0861L93.0953 13.0911L93.604 13.952ZM100.58 12.288H101.58V11.288H100.58V12.288ZM100.58 18.304V19.304H101.58V18.304H100.58ZM89.252 48V49H90.252V48H89.252ZM83.428 48H82.428V49H83.428V48ZM83.428 12.928V11.928H82.428V12.928H83.428ZM89.252 12.928H90.252V11.928H89.252V12.928ZM90.1426 19.0788C91.0834 17.2365 92.4041 15.8226 94.1127 14.8129L93.0953 13.0911C91.0492 14.3001 89.4687 16.0008 88.3614 18.1692L90.1426 19.0788ZM94.1043 14.8179C95.8407 13.8146 97.9846 13.288 100.58 13.288V11.288C97.7141 11.288 95.2073 11.8707 93.1037 13.0861L94.1043 14.8179ZM99.58 12.288V18.304H101.58V12.288H99.58ZM100.58 17.304H99.044V19.304H100.58V17.304ZM99.044 17.304C95.604 17.304 92.8462 18.2409 90.9647 20.2823C89.0974 22.3083 88.252 25.2518 88.252 28.928H90.252C90.252 25.5215 91.0386 23.1531 92.4353 21.6377C93.8178 20.1378 95.956 19.304 99.044 19.304V17.304ZM88.252 28.928V48H90.252V28.928H88.252ZM89.252 47H83.428V49H89.252V47ZM84.428 48V12.928H82.428V48H84.428ZM83.428 13.928H89.252V11.928H83.428V13.928ZM88.252 12.928V18.624H90.252V12.928H88.252ZM113.127 19.456H112.127V23.2216L113.995 19.9521L113.127 19.456ZM118.375 14.336L118.873 15.2033H118.873L118.375 14.336ZM134.759 14.592L135.269 13.7319L134.759 14.592ZM140.711 20.928L139.828 21.3972L139.831 21.4029L140.711 20.928ZM140.711 39.808L141.597 40.2715L140.711 39.808ZM134.695 46.272L134.18 45.4145L134.174 45.4184L134.695 46.272ZM118.247 46.592L117.742 47.4552L117.749 47.4593L118.247 46.592ZM113.127 41.536L113.999 41.0457L112.127 37.7185V41.536H113.127ZM113.127 48V49H114.127V48H113.127ZM107.303 48H106.303V49H107.303V48ZM107.303 0.639999V-0.360001H106.303V0.639999H107.303ZM113.127 0.639999H114.127V-0.360001H113.127V0.639999ZM135.335 23.424L136.214 22.9465L135.335 23.424ZM130.983 18.944L130.487 19.8123L130.496 19.8172L130.983 18.944ZM119.079 19.008L119.575 19.8763L119.582 19.8725L119.079 19.008ZM114.727 23.552L113.852 23.0679L113.848 23.0745L114.727 23.552ZM114.727 37.376L113.844 37.8456L113.85 37.8569L113.856 37.8681L114.727 37.376ZM119.079 41.92L118.568 42.7793L118.579 42.7864L118.592 42.7932L119.079 41.92ZM130.983 41.92L131.479 42.7883L131.486 42.7845L130.983 41.92ZM135.335 37.376L136.214 37.8535L136.218 37.8456L135.335 37.376ZM113.995 19.9521C115.093 18.0315 116.707 16.4468 118.873 15.2033L117.877 13.4687C115.435 14.8706 113.551 16.6991 112.259 18.9599L113.995 19.9521ZM118.873 15.2033C121.009 13.9767 123.458 13.352 126.247 13.352V11.352C123.148 11.352 120.349 12.0499 117.877 13.4687L118.873 15.2033ZM126.247 13.352C129.239 13.352 131.898 14.0575 134.249 15.4521L135.269 13.7319C132.585 12.1398 129.569 11.352 126.247 11.352V13.352ZM134.249 15.4521C136.599 16.8464 138.458 18.819 139.828 21.3972L141.594 20.4588C140.062 17.5757 137.953 15.3243 135.269 13.7319L134.249 15.4521ZM139.831 21.4029C141.19 23.9216 141.887 26.889 141.887 30.336H143.887C143.887 26.615 143.133 23.3104 141.591 20.4531L139.831 21.4029ZM141.887 30.336C141.887 33.7374 141.191 36.7321 139.825 39.3445L141.597 40.2715C143.132 37.3372 143.887 34.0173 143.887 30.336H141.887ZM139.825 39.3445C138.455 41.9631 136.575 43.9778 134.181 45.4145L135.209 47.1295C137.935 45.4942 140.065 43.1996 141.597 40.2715L139.825 39.3445ZM134.174 45.4184C131.823 46.8532 129.189 47.576 126.247 47.576V49.576C129.535 49.576 132.533 48.7628 135.216 47.1256L134.174 45.4184ZM126.247 47.576C123.367 47.576 120.877 46.9488 118.745 45.7247L117.749 47.4593C120.225 48.8805 123.068 49.576 126.247 49.576V47.576ZM118.752 45.7288C116.626 44.4852 115.054 42.9219 113.999 41.0457L112.255 42.0263C113.504 44.2461 115.346 46.0535 117.742 47.4552L118.752 45.7288ZM112.127 41.536V48H114.127V41.536H112.127ZM113.127 47H107.303V49H113.127V47ZM108.303 48V0.639999H106.303V48H108.303ZM107.303 1.64H113.127V-0.360001H107.303V1.64ZM112.127 0.639999V19.456H114.127V0.639999H112.127ZM137.935 30.336C137.935 27.5546 137.373 25.0805 136.214 22.9465L134.456 23.9015C135.43 25.6928 135.935 27.8267 135.935 30.336H137.935ZM136.214 22.9465C135.063 20.8285 133.481 19.1929 131.47 18.0708L130.496 19.8172C132.154 20.7431 133.474 22.0941 134.456 23.9015L136.214 22.9465ZM131.479 18.0758C129.528 16.9607 127.371 16.408 125.031 16.408V18.408C127.043 18.408 128.854 18.8793 130.487 19.8122L131.479 18.0758ZM125.031 16.408C122.722 16.408 120.565 16.9876 118.576 18.1435L119.582 19.8725C121.263 18.8951 123.073 18.408 125.031 18.408V16.408ZM118.583 18.1398C116.615 19.2645 115.04 20.9205 113.852 23.0679L115.602 24.0361C116.633 22.1729 117.959 20.7995 119.575 19.8762L118.583 18.1398ZM113.848 23.0745C112.69 25.2062 112.127 27.6582 112.127 30.4H114.127C114.127 27.9365 114.631 25.8231 115.606 24.0295L113.848 23.0745ZM112.127 30.4C112.127 33.182 112.689 35.6736 113.844 37.8456L115.61 36.9064C114.632 35.0678 114.127 32.9086 114.127 30.4H112.127ZM113.856 37.8681C115.044 39.9696 116.614 41.6164 118.568 42.7793L119.59 41.0607C117.96 40.0903 116.628 38.7077 115.598 36.8839L113.856 37.8681ZM118.592 42.7932C120.578 43.9017 122.73 44.456 125.031 44.456V42.456C123.066 42.456 121.25 41.9863 119.566 41.0468L118.592 42.7932ZM125.031 44.456C127.371 44.456 129.528 43.9033 131.479 42.7882L130.487 41.0518C128.854 41.9847 127.043 42.456 125.031 42.456V44.456ZM131.486 42.7845C133.487 41.6208 135.064 39.9683 136.214 37.8535L134.456 36.8985C133.472 38.709 132.148 40.0859 130.48 41.0555L131.486 42.7845ZM136.218 37.8456C137.374 35.6713 137.935 33.1578 137.935 30.336H135.935C135.935 32.8902 135.429 35.07 134.452 36.9064L136.218 37.8456ZM182.361 32.64V33.64H183.263L183.356 32.7429L182.361 32.64ZM154.329 32.64V31.64H153.265L153.331 32.7016L154.329 32.64ZM157.849 40.768L157.172 41.5039L157.18 41.511L157.187 41.5178L157.849 40.768ZM171.993 41.92L172.562 42.7422L172.566 42.7392L171.993 41.92ZM175.577 37.184V36.184H174.866L174.633 36.8555L175.577 37.184ZM181.849 37.184L182.812 37.4523L183.166 36.184H181.849V37.184ZM176.217 45.44L176.813 46.243L176.821 46.2371L176.217 45.44ZM156.761 46.336L156.263 47.2034L156.269 47.2068L156.761 46.336ZM150.617 40L149.737 40.4741L149.74 40.4798L150.617 40ZM150.553 20.864L151.436 21.3332L150.553 20.864ZM156.633 14.592L157.12 15.4655L157.125 15.4628L156.633 14.592ZM174.553 14.528L174.06 15.398L174.553 14.528ZM180.441 20.544L179.559 21.0146L179.563 21.0234L179.568 21.0322L180.441 20.544ZM176.537 27.904V28.904H177.537V27.904H176.537ZM175.065 22.208L174.209 22.7258L174.216 22.7359L175.065 22.208ZM171.033 18.56L170.577 19.4498L170.59 19.4568L170.604 19.4633L171.033 18.56ZM157.913 20.096L157.245 19.3519L157.237 19.3588L157.913 20.096ZM154.393 27.904L153.397 27.8146L153.299 28.904H154.393V27.904ZM181.553 29.12C181.553 30.1911 181.491 31.3299 181.366 32.5371L183.356 32.7429C183.487 31.4754 183.553 30.2675 183.553 29.12H181.553ZM182.361 31.64H154.329V33.64H182.361V31.64ZM153.331 32.7016C153.557 36.362 154.812 39.3332 157.172 41.5039L158.526 40.0321C156.619 38.2774 155.528 35.83 155.327 32.5784L153.331 32.7016ZM157.187 41.5178C159.557 43.609 162.421 44.648 165.721 44.648V42.648C162.877 42.648 160.493 41.767 158.511 40.0182L157.187 41.5178ZM165.721 44.648C168.392 44.648 170.694 44.0355 172.562 42.7422L171.424 41.0978C169.964 42.1085 168.085 42.648 165.721 42.648V44.648ZM172.566 42.7392C174.445 41.4244 175.77 39.6742 176.521 37.5125L174.633 36.8555C174.019 38.6191 172.954 40.0263 171.42 41.1008L172.566 42.7392ZM175.577 38.184H181.849V36.184H175.577V38.184ZM180.886 36.9157C180.006 40.0733 178.257 42.6404 175.613 44.6429L176.821 46.2371C179.81 43.973 181.814 41.036 182.812 37.4523L180.886 36.9157ZM175.621 44.6371C173.009 46.5766 169.73 47.576 165.721 47.576V49.576C170.075 49.576 173.793 48.4848 176.813 46.2429L175.621 44.6371ZM165.721 47.576C162.548 47.576 159.734 46.8659 157.253 45.4652L156.269 47.2068C159.079 48.7928 162.238 49.576 165.721 49.576V47.576ZM157.259 45.4686C154.822 44.0705 152.903 42.0955 151.494 39.5202L149.74 40.4798C151.318 43.3659 153.495 45.6148 156.263 47.2034L157.259 45.4686ZM151.497 39.5259C150.094 36.919 149.377 33.8864 149.377 30.4H147.377C147.377 34.1669 148.154 37.5343 149.737 40.4741L151.497 39.5259ZM149.377 30.4C149.377 26.9086 150.074 23.8963 151.436 21.3332L149.67 20.3948C148.13 23.2931 147.377 26.6381 147.377 30.4H149.377ZM151.436 21.3332C152.8 18.7658 154.692 16.8187 157.12 15.4655L156.146 13.7185C153.369 15.2666 151.207 17.5008 149.67 20.3948L151.436 21.3332ZM157.125 15.4628C159.602 14.0642 162.458 13.352 165.721 13.352V11.352C162.157 11.352 158.955 12.1331 156.141 13.7212L157.125 15.4628ZM165.721 13.352C168.899 13.352 171.669 14.0432 174.06 15.398L175.046 13.658C172.317 12.1114 169.199 11.352 165.721 11.352V13.352ZM174.06 15.398C176.457 16.7566 178.284 18.6245 179.559 21.0146L181.323 20.0734C179.867 17.3435 177.769 15.2008 175.046 13.658L174.06 15.398ZM179.568 21.0322C180.884 23.3845 181.553 26.0718 181.553 29.12H183.553C183.553 25.7682 182.814 22.7382 181.314 20.0558L179.568 21.0322ZM177.537 27.904C177.537 25.5352 177.012 23.4456 175.914 21.6801L174.216 22.7359C175.081 24.1278 175.537 25.8355 175.537 27.904H177.537ZM175.921 21.6902C174.838 19.902 173.346 18.5516 171.462 17.6567L170.604 19.4633C172.133 20.1897 173.329 21.2714 174.21 22.7258L175.921 21.6902ZM171.489 17.6702C169.671 16.7377 167.656 16.28 165.465 16.28V18.28C167.37 18.28 169.067 18.6756 170.577 19.4498L171.489 17.6702ZM165.465 16.28C162.287 16.28 159.528 17.3014 157.245 19.352L158.581 20.84C160.479 19.1359 162.755 18.28 165.465 18.28V16.28ZM157.237 19.3588C154.97 21.4375 153.713 24.2914 153.397 27.8146L155.389 27.9934C155.67 24.8606 156.76 22.5092 158.589 20.8332L157.237 19.3588ZM154.393 28.904H176.537V26.904H154.393V28.904ZM196.064 18.624H195.064L196.955 19.0788L196.064 18.624ZM200.417 13.952L199.916 13.0861L199.908 13.0911L200.417 13.952ZM207.393 12.288H208.393V11.288H207.393V12.288ZM207.393 18.304V19.304H208.393V18.304H207.393ZM196.064 48V49H197.064V48H196.064ZM190.24 48H189.24V49H190.24V48ZM190.24 12.928V11.928H189.24V12.928H190.24ZM196.064 12.928H197.064V11.928H196.064V12.928ZM196.955 19.0788C197.896 17.2365 199.217 15.8226 200.925 14.8129L199.908 13.0911C197.862 14.3001 196.281 16.0008 195.174 18.1692L196.955 19.0788ZM200.917 14.8179C202.653 13.8146 204.797 13.288 207.393 13.288V11.288C204.527 11.288 202.02 11.8707 199.916 13.0861L200.917 14.8179ZM206.393 12.288V18.304H208.393V12.288H206.393ZM207.393 17.304H205.857V19.304H207.393V17.304ZM205.857 17.304C202.416 17.304 199.659 18.2409 197.777 20.2823C195.91 22.3083 195.064 25.2518 195.064 28.928H197.064C197.064 25.5215 197.851 23.1531 199.248 21.6377C200.63 20.1378 202.769 19.304 205.857 19.304V17.304ZM195.064 28.928V48H197.064V28.928H195.064ZM196.064 47H190.24V49H196.064V47ZM191.24 48V12.928H189.24V48H191.24ZM190.24 13.928H196.064V11.928H190.24V13.928ZM195.064 12.928V18.624H197.064V12.928H195.064ZM236.452 25.024L236.14 24.0736L236.296 26.0118L236.452 25.024ZM240.868 27.008L240.24 27.7864L240.246 27.7913L240.252 27.796L240.868 27.008ZM244.068 30.976L243.168 31.4135L243.173 31.4232L243.178 31.4328L244.068 30.976ZM243.555 42.176L244.397 42.7168L244.402 42.7078L243.555 42.176ZM238.499 46.464L238.925 47.3689L238.933 47.3652L238.499 46.464ZM214.115 48H213.115V49H214.115V48ZM214.115 3.392V2.392H213.115V3.392H214.115ZM237.859 4.928L237.427 5.82952L237.434 5.83307L237.442 5.83649L237.859 4.928ZM242.66 8.96L241.812 9.49V9.49L242.66 8.96ZM242.083 21.312L241.314 20.6737L241.312 20.6756L242.083 21.312ZM219.939 22.656H218.939V23.656H219.939V22.656ZM236.068 10.112L235.417 10.8713L235.417 10.8713L236.068 10.112ZM219.939 8.192V7.192H218.939V8.192H219.939ZM237.027 41.152L237.672 41.9169L237.027 41.152ZM236.9 29.632L236.252 30.3939L236.257 30.3987L236.263 30.4034L236.9 29.632ZM219.939 27.456V26.456H218.939V27.456H219.939ZM219.939 43.2H218.939V44.2H219.939V43.2ZM236.296 26.0118C237.738 26.2395 239.048 26.8256 240.24 27.7864L241.495 26.2296C240.041 25.0571 238.408 24.3205 236.607 24.0362L236.296 26.0118ZM240.252 27.796C241.496 28.7677 242.466 29.9698 243.168 31.4135L244.967 30.5385C244.133 28.8248 242.97 27.3817 241.483 26.22L240.252 27.796ZM243.178 31.4328C243.915 32.8687 244.284 34.3973 244.284 36.032H246.284C246.284 34.0827 245.841 32.2406 244.957 30.5192L243.178 31.4328ZM244.284 36.032C244.284 38.1139 243.756 39.9761 242.709 41.6442L244.402 42.7078C245.659 40.7066 246.284 38.4728 246.284 36.032H244.284ZM242.714 41.6352C241.677 43.2487 240.145 44.5635 238.066 45.5627L238.933 47.3652C241.292 46.2311 243.13 44.6873 244.397 42.7168L242.714 41.6352ZM238.074 45.5592C236.059 46.5072 233.63 47 230.755 47V49C233.855 49 236.588 48.4688 238.925 47.3688L238.074 45.5592ZM230.755 47H214.115V49H230.755V47ZM215.115 48V3.392H213.115V48H215.115ZM214.115 4.392H230.116V2.392H214.115V4.392ZM230.116 4.392C233.036 4.392 235.461 4.88587 237.427 5.82952L238.292 4.02647C235.992 2.92213 233.254 2.392 230.116 2.392V4.392ZM237.442 5.83649C239.428 6.7502 240.865 7.97485 241.812 9.49L243.507 8.43C242.321 6.53182 240.558 5.06846 238.277 4.01951L237.442 5.83649ZM241.812 9.49C242.773 11.028 243.26 12.7623 243.26 14.72H245.26C245.26 12.411 244.68 10.3053 243.507 8.43L241.812 9.49ZM243.26 14.72C243.26 17.1724 242.592 19.1325 241.314 20.6737L242.853 21.9503C244.477 19.9929 245.26 17.5582 245.26 14.72H243.26ZM241.312 20.6756C240.038 22.2195 238.329 23.3575 236.14 24.0736L236.763 25.9744C239.268 25.1545 241.313 23.8178 242.855 21.9484L241.312 20.6756ZM219.939 23.656H229.732V21.656H219.939V23.656ZM229.732 23.656C232.609 23.656 234.984 22.9816 236.718 21.4953L235.417 19.9767C234.164 21.0504 232.316 21.656 229.732 21.656V23.656ZM236.718 21.4953C238.468 19.9958 239.307 17.9286 239.307 15.424H237.307C237.307 17.442 236.654 18.9162 235.417 19.9767L236.718 21.4953ZM239.307 15.424C239.307 12.9194 238.468 10.8522 236.718 9.35274L235.417 10.8713C236.654 11.9318 237.307 13.406 237.307 15.424H239.307ZM236.718 9.35274C234.979 7.86213 232.557 7.192 229.604 7.192V9.192C232.282 9.192 234.169 9.80186 235.417 10.8713L236.718 9.35274ZM229.604 7.192H219.939V9.192H229.604V7.192ZM218.939 8.192V22.656H220.939V8.192H218.939ZM230.243 44.2C233.294 44.2 235.813 43.4819 237.672 41.9169L236.383 40.3871C234.999 41.5528 232.996 42.2 230.243 42.2V44.2ZM237.672 41.9169C239.553 40.3324 240.46 38.1344 240.46 35.456H238.46C238.46 37.6416 237.744 39.241 236.383 40.3871L237.672 41.9169ZM240.46 35.456C240.46 32.7228 239.502 30.4826 237.536 28.8606L236.263 30.4034C237.71 31.5974 238.46 33.2399 238.46 35.456H240.46ZM237.547 28.8701C235.614 27.2272 233.08 26.456 230.051 26.456V28.456C232.74 28.456 234.771 29.1355 236.252 30.3939L237.547 28.8701ZM230.051 26.456H219.939V28.456H230.051V26.456ZM218.939 27.456V43.2H220.939V27.456H218.939ZM219.939 44.2H230.243V42.2H219.939V44.2ZM284.47 12.928H285.47V11.928H284.47V12.928ZM284.47 48V49H285.47V48H284.47ZM278.646 48H277.646V49H278.646V48ZM278.646 42.816H279.646V39.3008L277.795 42.2896L278.646 42.816ZM273.974 47.04L274.421 47.9345L274.428 47.9306L273.974 47.04ZM260.086 46.848L259.618 47.7318L259.624 47.7354L259.631 47.7389L260.086 46.848ZM254.901 41.728L254.024 42.208L254.028 42.2143L254.031 42.2206L254.901 41.728ZM253.046 12.928V11.928H252.046V12.928H253.046ZM258.806 12.928H259.806V11.928H258.806V12.928ZM261.43 40.704L260.698 41.3858L260.706 41.3941L261.43 40.704ZM275.957 40.576L275.226 39.8937L275.957 40.576ZM278.646 12.928V11.928H277.646V12.928H278.646ZM283.47 12.928V48H285.47V12.928H283.47ZM284.47 47H278.646V49H284.47V47ZM279.646 48V42.816H277.646V48H279.646ZM277.795 42.2896C276.789 43.9157 275.373 45.2025 273.519 46.1494L274.428 47.9306C276.585 46.8295 278.284 45.3003 279.496 43.3424L277.795 42.2896ZM273.526 46.1456C271.715 47.0515 269.694 47.512 267.445 47.512V49.512C269.976 49.512 272.307 48.9912 274.421 47.9344L273.526 46.1456ZM267.445 47.512C264.854 47.512 262.559 46.9866 260.54 45.9571L259.631 47.7389C261.964 48.928 264.576 49.512 267.445 49.512V47.512ZM260.553 45.9642C258.556 44.9066 256.963 43.3403 255.772 41.2354L254.031 42.2206C255.4 44.6384 257.263 46.4854 259.618 47.7318L260.553 45.9642ZM255.779 41.248C254.64 39.1671 254.046 36.5894 254.046 33.472H252.046C252.046 36.84 252.688 39.7663 254.024 42.208L255.779 41.248ZM254.046 33.472V12.928H252.046V33.472H254.046ZM253.046 13.928H258.806V11.928H253.046V13.928ZM257.806 12.928V32.704H259.806V12.928H257.806ZM257.806 32.704C257.806 36.3236 258.724 39.2669 260.698 41.3857L262.161 40.0223C260.637 38.3864 259.806 35.9964 259.806 32.704H257.806ZM260.706 41.3941C262.68 43.4648 265.352 44.456 268.598 44.456V42.456C265.784 42.456 263.677 41.6125 262.153 40.0139L260.706 41.3941ZM268.598 44.456C271.933 44.456 274.672 43.4185 276.689 41.2583L275.226 39.8937C273.659 41.5735 271.491 42.456 268.598 42.456V44.456ZM276.689 41.2583C278.712 39.0905 279.646 36.0135 279.646 32.192H277.646C277.646 35.7092 276.787 38.2215 275.226 39.8937L276.689 41.2583ZM279.646 32.192V12.928H277.646V32.192H279.646ZM278.646 13.928H284.47V11.928H278.646V13.928ZM294.303 20.928L295.183 21.4029L295.186 21.3972L294.303 20.928ZM300.255 14.592L299.751 13.7282L299.745 13.7319L300.255 14.592ZM316.447 14.272L315.968 15.15L315.981 15.1566L316.447 14.272ZM321.823 19.2L320.967 19.7171L322.823 22.789V19.2H321.823ZM321.823 0.639999V-0.360001H320.823V0.639999H321.823ZM327.711 0.639999H328.711V-0.360001H327.711V0.639999ZM327.711 48V49H328.711V48H327.711ZM321.823 48H320.823V49H321.823V48ZM321.823 41.408H322.823L320.947 40.9254L321.823 41.408ZM316.703 46.592L317.208 47.4553L317.22 47.4481L316.703 46.592ZM300.255 46.272L299.734 47.1257L299.741 47.1295L300.255 46.272ZM294.303 39.808L295.189 39.3445L294.303 39.808ZM315.871 19.008L315.36 19.8673L315.371 19.8744L315.384 19.8812L315.871 19.008ZM303.967 18.944L303.471 18.0758L303.967 18.944ZM299.679 23.424L300.558 23.9015L299.679 23.424ZM299.679 37.376L298.796 37.8456L298.8 37.8535L299.679 37.376ZM303.967 41.92L303.456 42.7793L303.463 42.7838L303.471 42.7882L303.967 41.92ZM315.871 41.92L316.367 42.7883L316.374 42.7845L315.871 41.92ZM320.223 37.376L321.102 37.8535L321.106 37.8456L320.223 37.376ZM293.127 30.336C293.127 26.889 293.824 23.9216 295.183 21.4029L293.423 20.4531C291.881 23.3104 291.127 26.615 291.127 30.336H293.127ZM295.186 21.3972C296.556 18.819 298.415 16.8464 300.765 15.4521L299.745 13.7319C297.061 15.3243 294.952 17.5757 293.42 20.4588L295.186 21.3972ZM300.759 15.4558C303.156 14.0575 305.839 13.352 308.831 13.352V11.352C305.509 11.352 302.474 12.1398 299.751 13.7282L300.759 15.4558ZM308.831 13.352C311.398 13.352 313.772 13.9518 315.968 15.1499L316.926 13.3941C314.429 12.0322 311.725 11.352 308.831 11.352V13.352ZM315.981 15.1566C318.184 16.3186 319.834 17.8413 320.967 19.7171L322.679 18.6829C321.338 16.4627 319.403 14.7001 316.913 13.3874L315.981 15.1566ZM322.823 19.2V0.639999H320.823V19.2H322.823ZM321.823 1.64H327.711V-0.360001H321.823V1.64ZM326.711 0.639999V48H328.711V0.639999H326.711ZM327.711 47H321.823V49H327.711V47ZM322.823 48V41.408H320.823V48H322.823ZM320.947 40.9254C319.889 42.8462 318.314 44.4515 316.186 45.7359L317.22 47.4481C319.615 46.0019 321.453 44.1511 322.699 41.8906L320.947 40.9254ZM316.198 45.7288C314.113 46.9487 311.647 47.576 308.767 47.576V49.576C311.946 49.576 314.771 48.8807 317.208 47.4552L316.198 45.7288ZM308.767 47.576C305.825 47.576 303.167 46.8531 300.77 45.4145L299.741 47.1295C302.463 48.7629 305.479 49.576 308.767 49.576V47.576ZM300.776 45.4184C298.423 43.9827 296.561 41.9673 295.189 39.3445L293.417 40.2715C294.946 43.1953 297.052 45.4893 299.734 47.1256L300.776 45.4184ZM295.189 39.3445C293.823 36.7321 293.127 33.7374 293.127 30.336H291.127C291.127 34.0173 291.882 37.3372 293.417 40.2715L295.189 39.3445ZM322.823 30.4C322.823 27.6186 322.261 25.1445 321.102 23.0105L319.344 23.9655C320.318 25.7568 320.823 27.8907 320.823 30.4H322.823ZM321.102 23.0105C319.951 20.8925 318.369 19.2569 316.358 18.1348L315.384 19.8812C317.042 20.8071 318.362 22.1581 319.344 23.9655L321.102 23.0105ZM316.382 18.1487C314.429 16.9859 312.267 16.408 309.919 16.408V18.408C311.923 18.408 313.729 18.8968 315.36 19.8673L316.382 18.1487ZM309.919 16.408C307.579 16.408 305.422 16.9607 303.471 18.0758L304.463 19.8122C306.096 18.8793 307.907 18.408 309.919 18.408V16.408ZM303.471 18.0758C301.504 19.1995 299.948 20.8345 298.8 22.9465L300.558 23.9015C301.543 22.0881 302.846 20.7365 304.463 19.8122L303.471 18.0758ZM298.8 22.9465C297.641 25.0805 297.079 27.5546 297.079 30.336H299.079C299.079 27.8267 299.584 25.6928 300.558 23.9015L298.8 22.9465ZM297.079 30.336C297.079 33.1578 297.64 35.6713 298.796 37.8456L300.562 36.9064C299.585 35.07 299.079 32.8902 299.079 30.336H297.079ZM298.8 37.8535C299.947 39.9625 301.498 41.6141 303.456 42.7793L304.478 41.0607C302.852 40.0925 301.545 38.7149 300.558 36.8985L298.8 37.8535ZM303.471 42.7882C305.422 43.9033 307.579 44.456 309.919 44.456V42.456C307.907 42.456 306.096 41.9847 304.463 41.0518L303.471 42.7882ZM309.919 44.456C312.259 44.456 314.416 43.9033 316.367 42.7882L315.375 41.0518C313.742 41.9847 311.931 42.456 309.919 42.456V44.456ZM316.374 42.7845C318.375 41.6208 319.952 39.9683 321.102 37.8535L319.344 36.8985C318.36 38.709 317.036 40.0859 315.368 41.0555L316.374 42.7845ZM321.106 37.8456C322.261 35.6736 322.823 33.182 322.823 30.4H320.823C320.823 32.9086 320.318 35.0678 319.34 36.9064L321.106 37.8456ZM337.553 20.928L338.433 21.4029L338.436 21.3972L337.553 20.928ZM343.505 14.592L343.001 13.7282L342.995 13.7319L343.505 14.592ZM359.697 14.272L359.218 15.15L359.231 15.1566L359.697 14.272ZM365.073 19.2L364.217 19.7171L366.073 22.789V19.2H365.073ZM365.073 0.639999V-0.360001H364.073V0.639999H365.073ZM370.961 0.639999H371.961V-0.360001H370.961V0.639999ZM370.961 48V49H371.961V48H370.961ZM365.073 48H364.073V49H365.073V48ZM365.073 41.408H366.073L364.197 40.9254L365.073 41.408ZM359.953 46.592L360.458 47.4553L360.47 47.4481L359.953 46.592ZM343.505 46.272L342.984 47.1257L342.991 47.1295L343.505 46.272ZM337.553 39.808L338.439 39.3445L337.553 39.808ZM359.121 19.008L358.61 19.8673L358.621 19.8744L358.634 19.8812L359.121 19.008ZM347.217 18.944L346.721 18.0758L347.217 18.944ZM342.929 23.424L343.808 23.9015L342.929 23.424ZM342.929 37.376L342.046 37.8456L342.05 37.8535L342.929 37.376ZM347.217 41.92L346.706 42.7793L346.713 42.7838L346.721 42.7882L347.217 41.92ZM359.121 41.92L359.617 42.7883L359.624 42.7845L359.121 41.92ZM363.473 37.376L364.352 37.8535L364.356 37.8456L363.473 37.376ZM336.377 30.336C336.377 26.889 337.074 23.9216 338.433 21.4029L336.673 20.4531C335.131 23.3104 334.377 26.615 334.377 30.336H336.377ZM338.436 21.3972C339.806 18.819 341.665 16.8464 344.015 15.4521L342.995 13.7319C340.311 15.3243 338.202 17.5757 336.67 20.4588L338.436 21.3972ZM344.009 15.4558C346.406 14.0575 349.089 13.352 352.081 13.352V11.352C348.759 11.352 345.724 12.1398 343.001 13.7282L344.009 15.4558ZM352.081 13.352C354.648 13.352 357.022 13.9518 359.218 15.1499L360.176 13.3941C357.679 12.0322 354.975 11.352 352.081 11.352V13.352ZM359.231 15.1566C361.434 16.3186 363.084 17.8413 364.217 19.7171L365.929 18.6829C364.588 16.4627 362.653 14.7001 360.163 13.3874L359.231 15.1566ZM366.073 19.2V0.639999H364.073V19.2H366.073ZM365.073 1.64H370.961V-0.360001H365.073V1.64ZM369.961 0.639999V48H371.961V0.639999H369.961ZM370.961 47H365.073V49H370.961V47ZM366.073 48V41.408H364.073V48H366.073ZM364.197 40.9254C363.139 42.8462 361.564 44.4515 359.436 45.7359L360.47 47.4481C362.865 46.0019 364.703 44.1511 365.949 41.8906L364.197 40.9254ZM359.448 45.7288C357.363 46.9487 354.897 47.576 352.017 47.576V49.576C355.196 49.576 358.021 48.8807 360.458 47.4552L359.448 45.7288ZM352.017 47.576C349.075 47.576 346.417 46.8531 344.02 45.4145L342.991 47.1295C345.713 48.7629 348.729 49.576 352.017 49.576V47.576ZM344.026 45.4184C341.673 43.9827 339.811 41.9673 338.439 39.3445L336.667 40.2715C338.196 43.1953 340.302 45.4893 342.984 47.1256L344.026 45.4184ZM338.439 39.3445C337.073 36.7321 336.377 33.7374 336.377 30.336H334.377C334.377 34.0173 335.132 37.3372 336.667 40.2715L338.439 39.3445ZM366.073 30.4C366.073 27.6186 365.511 25.1445 364.352 23.0105L362.594 23.9655C363.568 25.7568 364.073 27.8907 364.073 30.4H366.073ZM364.352 23.0105C363.201 20.8925 361.619 19.2569 359.608 18.1348L358.634 19.8812C360.292 20.8071 361.612 22.1581 362.594 23.9655L364.352 23.0105ZM359.632 18.1487C357.679 16.9859 355.517 16.408 353.169 16.408V18.408C355.173 18.408 356.979 18.8968 358.61 19.8673L359.632 18.1487ZM353.169 16.408C350.829 16.408 348.672 16.9607 346.721 18.0758L347.713 19.8122C349.346 18.8793 351.157 18.408 353.169 18.408V16.408ZM346.721 18.0758C344.754 19.1995 343.198 20.8345 342.05 22.9465L343.808 23.9015C344.793 22.0881 346.096 20.7365 347.713 19.8122L346.721 18.0758ZM342.05 22.9465C340.891 25.0805 340.329 27.5546 340.329 30.336H342.329C342.329 27.8267 342.834 25.6928 343.808 23.9015L342.05 22.9465ZM340.329 30.336C340.329 33.1578 340.89 35.6713 342.046 37.8456L343.812 36.9064C342.835 35.07 342.329 32.8902 342.329 30.336H340.329ZM342.05 37.8535C343.197 39.9625 344.748 41.6141 346.706 42.7793L347.728 41.0607C346.102 40.0925 344.795 38.7149 343.808 36.8985L342.05 37.8535ZM346.721 42.7882C348.672 43.9033 350.829 44.456 353.169 44.456V42.456C351.157 42.456 349.346 41.9847 347.713 41.0518L346.721 42.7882ZM353.169 44.456C355.509 44.456 357.666 43.9033 359.617 42.7882L358.625 41.0518C356.992 41.9847 355.181 42.456 353.169 42.456V44.456ZM359.624 42.7845C361.625 41.6208 363.202 39.9683 364.352 37.8535L362.594 36.8985C361.61 38.709 360.286 40.0859 358.618 41.0555L359.624 42.7845ZM364.356 37.8456C365.511 35.6736 366.073 33.182 366.073 30.4H364.073C364.073 32.9086 363.568 35.0678 362.59 36.9064L364.356 37.8456ZM411.011 12.928L411.936 13.3069L412.501 11.928H411.011V12.928ZM389.891 64.512V65.512H390.562L390.816 64.8909L389.891 64.512ZM383.875 64.512L382.949 64.1334L382.385 65.512H383.875V64.512ZM390.787 47.616L391.713 47.9946L391.867 47.6166L391.713 47.2384L390.787 47.616ZM376.643 12.928V11.928H375.155L375.717 13.3056L376.643 12.928ZM383.107 12.928L384.039 12.5668L383.792 11.928H383.107V12.928ZM394.115 41.344L393.183 41.7052L394.12 44.1264L395.049 41.7016L394.115 41.344ZM404.995 12.928V11.928H404.307L404.061 12.5704L404.995 12.928ZM410.086 12.5491L388.966 64.1331L390.816 64.8909L411.936 13.3069L410.086 12.5491ZM389.891 63.512H383.875V65.512H389.891V63.512ZM384.801 64.8906L391.713 47.9946L389.861 47.2374L382.949 64.1334L384.801 64.8906ZM391.713 47.2384L377.569 12.5504L375.717 13.3056L389.861 47.9936L391.713 47.2384ZM376.643 13.928H383.107V11.928H376.643V13.928ZM382.175 13.2892L393.183 41.7052L395.047 40.9828L384.039 12.5668L382.175 13.2892ZM395.049 41.7016L405.929 13.2856L404.061 12.5704L393.181 40.9864L395.049 41.7016ZM404.995 13.928H411.011V11.928H404.995V13.928Z" fill="#292D33"/>
</svg>
