<svg width="412" height="65" viewBox="0 0 412 65" fill="none" xmlns="http://www.w3.org/2000/svg">
<path d="M23.264 25.024C24.8853 25.28 26.3573 25.9413 27.68 27.008C29.0453 28.0747 30.112 29.3973 30.88 30.976C31.6907 32.5547 32.096 34.24 32.096 36.032C32.096 38.2933 31.52 40.3413 30.368 42.176C29.216 43.968 27.5307 45.3973 25.312 46.464C23.136 47.488 20.5547 48 17.568 48H0.928V3.392H16.928C19.9573 3.392 22.5387 3.904 24.672 4.928C26.8053 5.90933 28.4053 7.25333 29.472 8.96C30.5387 10.6667 31.072 12.5867 31.072 14.72C31.072 17.3653 30.3467 19.5627 28.896 21.312C27.488 23.0187 25.6107 24.256 23.264 25.024ZM6.752 22.656H16.544C19.2747 22.656 21.3867 22.016 22.88 20.736C24.3733 19.456 25.12 17.6853 25.12 15.424C25.12 13.1627 24.3733 11.392 22.88 10.112C21.3867 8.832 19.232 8.192 16.416 8.192H6.752V22.656ZM17.056 43.2C19.9573 43.2 22.2187 42.5173 23.84 41.152C25.4613 39.7867 26.272 37.888 26.272 35.456C26.272 32.9813 25.4187 31.04 23.712 29.632C22.0053 28.1813 19.7227 27.456 16.864 27.456H6.752V43.2H17.056ZM38.002 30.336C38.002 26.752 38.7273 23.616 40.178 20.928C41.6287 18.1973 43.6127 16.0853 46.13 14.592C48.69 13.0987 51.5273 12.352 54.642 12.352C57.714 12.352 60.3807 13.0133 62.642 14.336C64.9033 15.6587 66.5887 17.3227 67.698 19.328V12.928H73.586V48H67.698V41.472C66.546 43.52 64.818 45.2267 62.514 46.592C60.2527 47.9147 57.6073 48.576 54.578 48.576C51.4633 48.576 48.6473 47.808 46.13 46.272C43.6127 44.736 41.6287 42.5813 40.178 39.808C38.7273 37.0347 38.002 33.8773 38.002 30.336ZM67.698 30.4C67.698 27.7547 67.1647 25.4507 66.098 23.488C65.0313 21.5253 63.5807 20.032 61.746 19.008C59.954 17.9413 57.97 17.408 55.794 17.408C53.618 17.408 51.634 17.92 49.842 18.944C48.05 19.968 46.6207 21.4613 45.554 23.424C44.4873 25.3867 43.954 27.6907 43.954 30.336C43.954 33.024 44.4873 35.3707 45.554 37.376C46.6207 39.3387 48.05 40.8533 49.842 41.92C51.634 42.944 53.618 43.456 55.794 43.456C57.97 43.456 59.954 42.944 61.746 41.92C63.5807 40.8533 65.0313 39.3387 66.098 37.376C67.1647 35.3707 67.698 33.0453 67.698 30.4ZM89.252 18.624C90.276 16.6187 91.7267 15.0613 93.604 13.952C95.524 12.8427 97.8493 12.288 100.58 12.288V18.304H99.044C92.516 18.304 89.252 21.8453 89.252 28.928V48H83.428V12.928H89.252V18.624ZM113.127 19.456C114.322 17.3653 116.071 15.6587 118.375 14.336C120.679 13.0133 123.303 12.352 126.247 12.352C129.404 12.352 132.242 13.0987 134.759 14.592C137.276 16.0853 139.26 18.1973 140.711 20.928C142.162 23.616 142.887 26.752 142.887 30.336C142.887 33.8773 142.162 37.0347 140.711 39.808C139.26 42.5813 137.255 44.736 134.695 46.272C132.178 47.808 129.362 48.576 126.247 48.576C123.218 48.576 120.551 47.9147 118.247 46.592C115.986 45.2693 114.279 43.584 113.127 41.536V48H107.303V0.639999H113.127V19.456ZM136.935 30.336C136.935 27.6907 136.402 25.3867 135.335 23.424C134.268 21.4613 132.818 19.968 130.983 18.944C129.191 17.92 127.207 17.408 125.031 17.408C122.898 17.408 120.914 17.9413 119.079 19.008C117.287 20.032 115.836 21.5467 114.727 23.552C113.66 25.5147 113.127 27.7973 113.127 30.4C113.127 33.0453 113.66 35.3707 114.727 37.376C115.836 39.3387 117.287 40.8533 119.079 41.92C120.914 42.944 122.898 43.456 125.031 43.456C127.207 43.456 129.191 42.944 130.983 41.92C132.818 40.8533 134.268 39.3387 135.335 37.376C136.402 35.3707 136.935 33.024 136.935 30.336ZM182.553 29.12C182.553 30.2293 182.489 31.4027 182.361 32.64H154.329C154.542 36.096 155.716 38.8053 157.849 40.768C160.025 42.688 162.649 43.648 165.721 43.648C168.238 43.648 170.329 43.072 171.993 41.92C173.7 40.7253 174.894 39.1467 175.577 37.184H181.849C180.91 40.5547 179.033 43.3067 176.217 45.44C173.401 47.5307 169.902 48.576 165.721 48.576C162.393 48.576 159.406 47.8293 156.761 46.336C154.158 44.8427 152.11 42.7307 150.617 40C149.124 37.2267 148.377 34.0267 148.377 30.4C148.377 26.7733 149.102 23.5947 150.553 20.864C152.004 18.1333 154.03 16.0427 156.633 14.592C159.278 13.0987 162.308 12.352 165.721 12.352C169.049 12.352 171.993 13.0773 174.553 14.528C177.113 15.9787 179.076 17.984 180.441 20.544C181.849 23.0613 182.553 25.92 182.553 29.12ZM176.537 27.904C176.537 25.6853 176.046 23.7867 175.065 22.208C174.084 20.5867 172.74 19.3707 171.033 18.56C169.369 17.7067 167.513 17.28 165.465 17.28C162.521 17.28 160.004 18.2187 157.913 20.096C155.865 21.9733 154.692 24.576 154.393 27.904H176.537ZM196.065 18.624C197.089 16.6187 198.539 15.0613 200.417 13.952C202.337 12.8427 204.662 12.288 207.393 12.288V18.304H205.857C199.329 18.304 196.065 21.8453 196.065 28.928V48H190.241V12.928H196.065V18.624ZM236.452 25.024C238.073 25.28 239.545 25.9413 240.868 27.008C242.233 28.0747 243.3 29.3973 244.068 30.976C244.878 32.5547 245.284 34.24 245.284 36.032C245.284 38.2933 244.708 40.3413 243.556 42.176C242.404 43.968 240.718 45.3973 238.5 46.464C236.324 47.488 233.742 48 230.756 48H214.116V3.392H230.116C233.145 3.392 235.726 3.904 237.86 4.928C239.993 5.90933 241.593 7.25333 242.66 8.96C243.726 10.6667 244.26 12.5867 244.26 14.72C244.26 17.3653 243.534 19.5627 242.083 21.312C240.676 23.0187 238.798 24.256 236.452 25.024ZM219.94 22.656H229.732C232.462 22.656 234.574 22.016 236.068 20.736C237.561 19.456 238.308 17.6853 238.308 15.424C238.308 13.1627 237.561 11.392 236.068 10.112C234.574 8.832 232.42 8.192 229.604 8.192H219.94V22.656ZM230.244 43.2C233.145 43.2 235.406 42.5173 237.028 41.152C238.649 39.7867 239.46 37.888 239.46 35.456C239.46 32.9813 238.606 31.04 236.9 29.632C235.193 28.1813 232.91 27.456 230.052 27.456H219.94V43.2H230.244ZM284.47 12.928V48H278.646V42.816C277.536 44.608 275.979 46.016 273.974 47.04C272.011 48.0213 269.835 48.512 267.446 48.512C264.715 48.512 262.262 47.9573 260.086 46.848C257.91 45.696 256.182 43.9893 254.902 41.728C253.664 39.4667 253.046 36.7147 253.046 33.472V12.928H258.806V32.704C258.806 36.16 259.68 38.8267 261.43 40.704C263.179 42.5387 265.568 43.456 268.598 43.456C271.712 43.456 274.166 42.496 275.958 40.576C277.75 38.656 278.646 35.8613 278.646 32.192V12.928H284.47ZM292.127 30.336C292.127 26.752 292.852 23.616 294.303 20.928C295.754 18.1973 297.738 16.0853 300.255 14.592C302.815 13.0987 305.674 12.352 308.831 12.352C311.562 12.352 314.1 12.992 316.447 14.272C318.794 15.5093 320.586 17.152 321.823 19.2V0.639999H327.711V48H321.823V41.408C320.671 43.4987 318.964 45.2267 316.703 46.592C314.442 47.9147 311.796 48.576 308.767 48.576C305.652 48.576 302.815 47.808 300.255 46.272C297.738 44.736 295.754 42.5813 294.303 39.808C292.852 37.0347 292.127 33.8773 292.127 30.336ZM321.823 30.4C321.823 27.7547 321.29 25.4507 320.223 23.488C319.156 21.5253 317.706 20.032 315.871 19.008C314.079 17.9413 312.095 17.408 309.919 17.408C307.743 17.408 305.759 17.92 303.967 18.944C302.175 19.968 300.746 21.4613 299.679 23.424C298.612 25.3867 298.079 27.6907 298.079 30.336C298.079 33.024 298.612 35.3707 299.679 37.376C300.746 39.3387 302.175 40.8533 303.967 41.92C305.759 42.944 307.743 43.456 309.919 43.456C312.095 43.456 314.079 42.944 315.871 41.92C317.706 40.8533 319.156 39.3387 320.223 37.376C321.29 35.3707 321.823 33.0453 321.823 30.4ZM335.377 30.336C335.377 26.752 336.102 23.616 337.553 20.928C339.004 18.1973 340.988 16.0853 343.505 14.592C346.065 13.0987 348.924 12.352 352.081 12.352C354.812 12.352 357.35 12.992 359.697 14.272C362.044 15.5093 363.836 17.152 365.073 19.2V0.639999H370.961V48H365.073V41.408C363.921 43.4987 362.214 45.2267 359.953 46.592C357.692 47.9147 355.046 48.576 352.017 48.576C348.902 48.576 346.065 47.808 343.505 46.272C340.988 44.736 339.004 42.5813 337.553 39.808C336.102 37.0347 335.377 33.8773 335.377 30.336ZM365.073 30.4C365.073 27.7547 364.54 25.4507 363.473 23.488C362.406 21.5253 360.956 20.032 359.121 19.008C357.329 17.9413 355.345 17.408 353.169 17.408C350.993 17.408 349.009 17.92 347.217 18.944C345.425 19.968 343.996 21.4613 342.929 23.424C341.862 25.3867 341.329 27.6907 341.329 30.336C341.329 33.024 341.862 35.3707 342.929 37.376C343.996 39.3387 345.425 40.8533 347.217 41.92C349.009 42.944 350.993 43.456 353.169 43.456C355.345 43.456 357.329 42.944 359.121 41.92C360.956 40.8533 362.406 39.3387 363.473 37.376C364.54 35.3707 365.073 33.0453 365.073 30.4ZM411.011 12.928L389.891 64.512H383.875L390.787 47.616L376.643 12.928H383.107L394.115 41.344L404.995 12.928H411.011Z" fill="white"/>
</svg>
