<svg xmlns="http://www.w3.org/2000/svg" width="115" height="36" viewBox="0 0 115 36" fill="none">
  <path d="M12.3885 15.8498C12.7111 13.5469 11.8192 11.4854 9.93771 11.6806C7.38531 11.9455 5.60947 18.7822 11.039 21.0572C15.4905 22.9224 18.7313 18.6044 23.8596 11.942C35.3187 -2.94479 49.1553 -4.38861 57.5934 10.6395C61.0713 2.40319 74.7804 -11.3264 95.7131 17.1524C103.403 27.6142 110.274 17.7758 106.509 12.3762C104.797 9.92023 101.45 13.3501 103.136 15.8498H102.798C94.9417 6.88285 111.352 -1.49576 114.604 13.6788C117.964 36.5196 99.2426 40.2328 84.2444 31.9122C55.257 13.242 54.9478 18.2575 26.8937 33.649C18.2842 38.1912 7.73981 35.5959 3.48342 30.344C-1.57177 24.1065 -1.25908 9.28397 5.30345 6.29746C12.0013 2.83958 17.6677 10.2421 12.3885 15.8498Z" fill="#292D33"/>
</svg>